<svg width="112" height="41" viewBox="0 0 112 41" fill="none" xmlns="http://www.w3.org/2000/svg">
<g clip-path="url(#clip0_10_201)">
<path d="M0.119446 0.546137V31.708L4.12909 31.7204V16.8807H13.7966V12.9583H4.12909V4.46666H16.7197V0.544189L0.119446 0.546137Z" fill="black"/>
<path d="M23.9367 6.87181C25.381 6.87181 26.5516 5.70104 26.5516 4.25682C26.5516 2.81261 25.381 1.64185 23.9367 1.64185C22.4926 1.64185 21.3217 2.81261 21.3217 4.25682C21.3217 5.70104 22.4926 6.87181 23.9367 6.87181Z" fill="black"/>
<path d="M21.897 10.7943V31.7142H25.9067V10.7943H21.897Z" fill="black"/>
<path fill-rule="evenodd" clip-rule="evenodd" d="M40.7784 10.1842C35.4538 10.1842 31.738 14.6874 31.738 20.0339C31.738 25.3806 35.4538 29.8837 40.7784 29.8837C43.216 29.8837 45.225 28.9399 46.687 27.4037V30.1888C46.687 33.6548 43.9645 36.5519 40.4111 36.5519C39.1339 36.5519 37.8649 36.0568 36.8539 35.36L34.8448 38.8396C36.4494 39.874 38.3602 40.4743 40.4111 40.4743C46.0918 40.4743 50.6966 35.8693 50.6966 30.1888V10.7944H46.687V12.6643C45.225 11.1279 43.216 10.1842 40.7784 10.1842ZM35.7477 20.0339C35.7477 16.7152 38.2863 14.1067 41.2142 14.1067C44.1424 14.1067 46.6808 16.7152 46.6808 20.0339C46.6808 23.3526 44.1424 25.9613 41.2142 25.9613C38.2863 25.9613 35.7477 23.3526 35.7477 20.0339Z" fill="black"/>
<path d="M65.1445 14.1067C62.7736 14.1067 60.8515 16.1158 60.8515 18.4867V31.7143H56.8419V10.7944H60.8515V12.7107C62.0264 11.192 63.7572 10.1842 66.0161 10.1842C68.8257 10.1842 70.982 11.5797 72.2309 13.7153C73.6197 11.6525 75.8851 10.1842 78.6116 10.1842C83.1752 10.1842 86.0157 13.8661 86.0426 18.4213C86.0426 18.4351 86.0426 18.4488 86.0426 18.4627V18.4635V18.4641V18.4649C86.0426 18.4722 86.0426 18.4794 86.0426 18.4867V31.7143H82.033V18.4867C82.033 16.1158 80.1109 14.1067 77.74 14.1067C75.369 14.1067 73.4471 16.1158 73.4471 18.4867V31.7143H69.4374V18.4867C69.4374 16.1158 67.5154 14.1067 65.1445 14.1067Z" fill="black"/>
<path fill-rule="evenodd" clip-rule="evenodd" d="M107.398 13.1658C105.614 11.3239 103.171 10.1842 100.338 10.1842C94.3726 10.1842 90.1393 15.2347 90.1393 21.2542C90.1393 27.2738 94.3726 32.3243 100.338 32.3243C103.171 32.3243 105.614 31.1847 107.398 29.3427V31.7143H111.408V10.7944H107.398V13.1658ZM94.149 21.2542C94.149 17.2607 97.2068 14.1067 100.774 14.1067C104.34 14.1067 107.398 17.2607 107.398 21.2542C107.398 25.2479 104.34 28.4019 100.774 28.4019C97.2068 28.4019 94.149 25.2479 94.149 21.2542Z" fill="black"/>
</g>
<defs>
<clipPath id="clip0_10_201">
<rect width="111.288" height="40.342" fill="white" transform="translate(0.119446 0.544189)"/>
</clipPath>
</defs>
</svg>
