<svg width="157" height="50" viewBox="0 0 157 50" fill="none" xmlns="http://www.w3.org/2000/svg">
<g clip-path="url(#clip0_10_198)">
<path d="M19.5646 18.0204V23.2552H32.1978C31.8624 26.1511 30.8562 28.3787 29.2911 29.8266C27.5023 31.6087 24.5955 33.6135 19.5646 33.6135C11.8506 33.6135 5.81349 27.3763 5.81349 19.6911C5.81349 12.0059 11.7388 5.76865 19.5646 5.76865C23.7012 5.76865 26.8315 7.43934 29.0675 9.55555L32.7568 5.88003C29.6264 2.87278 25.3781 0.533813 19.5646 0.533813C8.94383 0.533813 0 9.11004 0 19.6911C0 30.2721 8.94383 38.8484 19.5646 38.8484C25.2663 38.8484 29.6264 36.9549 32.9804 33.5021C36.4461 30.0494 37.5641 25.1487 37.5641 21.2504C37.5641 20.0252 37.4523 18.9114 37.3405 18.0204H19.5646V18.0204Z" fill="#4285F4"/>
<path d="M53.2158 13.6766C46.3961 13.6766 40.6944 18.9115 40.6944 26.0398C40.6944 33.168 46.2843 38.4029 53.2158 38.4029C60.1473 38.4029 65.7372 33.2794 65.7372 26.1511C65.7372 18.9115 60.1473 13.6766 53.2158 13.6766ZM53.2158 33.6136C49.4147 33.6136 46.1725 30.4949 46.1725 26.1511C46.1725 21.696 49.4147 18.6887 53.2158 18.6887C57.0169 18.6887 60.2591 21.696 60.2591 26.1511C60.2591 30.4949 57.0169 33.6136 53.2158 33.6136Z" fill="#EA4335"/>
<path d="M114.369 16.4611H114.146C112.916 15.0132 110.568 13.6766 107.55 13.6766C101.289 13.6766 95.9226 19.0229 95.9226 26.0398C95.9226 32.9453 101.289 38.4029 107.55 38.4029C110.568 38.4029 112.916 37.0663 114.146 35.6184H114.369V37.4005C114.369 42.0784 111.798 44.6401 107.773 44.6401C104.419 44.6401 102.407 42.3012 101.513 40.185L96.817 42.1898C98.1586 45.4198 101.848 49.5408 107.885 49.5408C114.257 49.5408 119.736 45.7539 119.736 36.6208V14.3449H114.593V16.4611H114.369ZM108.109 33.6136C104.307 33.6136 101.513 30.3836 101.513 26.1511C101.513 21.8073 104.419 18.6887 108.109 18.6887C111.798 18.6887 114.705 21.9187 114.705 26.2625C114.816 30.4949 111.91 33.6136 108.109 33.6136Z" fill="#4285F4"/>
<path d="M81.0535 13.6766C74.2338 13.6766 68.5321 18.9115 68.5321 26.0398C68.5321 33.168 74.122 38.4029 81.0535 38.4029C87.9849 38.4029 93.5748 33.2794 93.5748 26.1511C93.5748 18.9115 87.9849 13.6766 81.0535 13.6766ZM81.0535 33.6136C77.2523 33.6136 74.0102 30.4949 74.0102 26.1511C74.0102 21.696 77.2523 18.6887 81.0535 18.6887C84.8546 18.6887 88.0967 21.696 88.0967 26.1511C88.0967 30.4949 84.8546 33.6136 81.0535 33.6136Z" fill="#FBBC05"/>
<path d="M123.872 1.0907H129.238V38.5142H123.872V1.0907Z" fill="#34A853"/>
<path d="M145.784 33.6136C142.99 33.6136 141.089 32.3884 139.747 29.8267L156.405 23.0325L155.846 21.5846C154.84 18.8001 151.598 13.6766 145.225 13.6766C138.853 13.6766 133.487 18.6887 133.487 26.0398C133.487 32.9453 138.741 38.4029 145.784 38.4029C151.486 38.4029 154.728 34.9501 156.182 32.9453L151.933 30.1608C150.48 32.277 148.579 33.6136 145.784 33.6136ZM145.449 18.3546C147.685 18.3546 149.586 19.4684 150.145 21.0277L138.965 25.7056C138.853 20.5822 142.654 18.3546 145.449 18.3546Z" fill="#EA4335"/>
</g>
<defs>
<clipPath id="clip0_10_198">
<rect width="156.405" height="49.007" fill="white" transform="translate(0 0.533813)"/>
</clipPath>
</defs>
</svg>
