<svg width="40" height="38" viewBox="0 0 40 38" fill="none" xmlns="http://www.w3.org/2000/svg">
<path d="M20.0118 2.07962C23.3022 -0.0243104 27.3294 -0.562589 31.0413 0.605408C34.2696 1.60938 36.9542 3.9155 38.4707 6.98765C40.244 10.7112 40.4854 15.0016 39.1413 18.9072C37.9042 22.5025 35.8759 25.7618 33.2119 28.4356C31.4651 30.2309 29.5828 31.884 27.5824 33.3796L27.4765 33.4695C26.8119 33.9169 25.9182 33.7412 25.4647 33.0739C25.2342 32.7517 25.1416 32.3481 25.2081 31.9551C25.2746 31.5622 25.4945 31.2135 25.8177 30.9885C27.6948 29.5741 29.4645 28.0176 31.1118 26.3321C33.4843 23.9975 35.296 21.1367 36.406 17.9723C37.4737 14.8191 37.2576 11.3617 35.806 8.37197C34.6379 6.02001 32.5797 4.2543 30.106 3.48191C26.9507 2.47676 23.5131 3.0861 20.8765 5.11792C20.3523 5.51349 19.6359 5.51349 19.1118 5.11792C16.4764 3.08327 13.0374 2.47368 9.8823 3.48191C7.39192 4.23724 5.31327 5.99761 4.12932 8.35399C2.71051 11.3415 2.50755 14.7791 3.56461 17.9184C4.67933 21.0751 6.49057 23.9291 8.85876 26.2602C12.358 29.6784 16.2167 32.693 20.3647 35.2493C20.8923 35.6221 21.1243 36.2986 20.9394 36.925C20.7546 37.5514 20.1949 37.9853 19.5529 38C19.2636 38.0017 18.9805 37.9139 18.7412 37.7483C14.4201 35.0859 10.4015 31.9446 6.75875 28.3816C4.07986 25.7167 2.04416 22.4551 0.811657 18.8532C-0.485978 14.9531 -0.219606 10.6887 1.55284 6.98765C3.06939 3.9155 5.7539 1.60938 8.9823 0.605408C12.6941 -0.562589 16.7213 -0.0243104 20.0118 2.07962ZM27.552 7.99391L27.7765 7.99443C30.4079 8.84066 32.2808 11.2169 32.5236 14.0171L32.5349 14.2518C32.5255 14.5634 32.4192 14.8663 32.2281 15.115C31.9893 15.4259 31.638 15.6262 31.253 15.6711C30.4448 15.7775 29.7039 15.1993 29.5942 14.3767C29.5204 12.7152 28.4344 11.2783 26.8765 10.781C26.2973 10.4126 26.0401 9.68882 26.2535 9.02804C26.4669 8.36726 27.0958 7.94048 27.7765 7.99443L27.552 7.99391Z" fill="black"/>
</svg>
