<svg width="20" height="23" viewBox="0 0 24 23" fill="none" xmlns="http://www.w3.org/2000/svg">
<path d="M5 2.50125C4.99967 3.16429 4.73596 3.80004 4.26688 4.26865C3.79781 4.73726 3.16179 5.00033 2.49875 5C1.83571 4.99967 1.19996 4.73596 0.731349 4.26688C0.262743 3.79781 -0.000331208 3.16179 3.12952e-07 2.49875C0.000331834 1.83571 0.264042 1.19996 0.733117 0.731349C1.20219 0.262743 1.83821 -0.000331208 2.50125 3.12952e-07C3.16429 0.000331834 3.80004 0.264042 4.26865 0.733117C4.73726 1.20219 5.00033 1.83821 5 2.50125V2.50125ZM5.075 6.85125H0.0750002V22.5012H5.075V6.85125ZM12.975 6.85125H8V22.5012H12.925V14.2888C12.925 9.71375 18.8875 9.28875 18.8875 14.2888V22.5012H23.825V12.5888C23.825 4.87625 15 5.16375 12.925 8.95125L12.975 6.85125V6.85125Z" fill="#256D85"/>
</svg>
