<svg width="218" height="54" viewBox="0 0 218 54" fill="none" xmlns="http://www.w3.org/2000/svg">
<g clip-path="url(#clip0_10_199)">
<path d="M85.9813 19.6316H92.8215V41.1471H85.9813V19.6316Z" fill="#E60023"/>
<path d="M94.2498 19.6315H100.838V22.5731H100.964C102.559 20.2618 104.615 19.0013 107.594 19.0013C112.294 19.0013 115.064 22.363 115.064 27.1536V41.147H108.224V28.5404C108.224 26.271 107.091 24.7161 104.867 24.7161C102.601 24.7161 101.09 26.6073 101.09 29.2546V41.147H94.2498V19.6315Z" fill="#E60023"/>
<path d="M93.5043 13.8753C93.5043 11.606 91.6673 9.76654 89.4013 9.76654C87.1353 9.76654 85.2983 11.606 85.2983 13.8753C85.2983 16.1445 87.1353 17.9839 89.4013 17.9839C91.6673 17.9839 93.5043 16.1445 93.5043 13.8753Z" fill="#E60023"/>
<path d="M163.171 19.3208C162.976 19.3032 162.752 19.2954 162.49 19.2954C159.888 19.2954 158.126 20.43 156.615 22.9933H156.489V19.6316H149.943V41.1469H156.783V31.4818C156.783 27.0035 159.259 24.9284 163.171 25.2905V19.3208Z" fill="#E60023"/>
<path d="M196.737 27.5736C194.01 27.0695 191.576 26.8595 191.576 25.3467C191.576 24.0018 192.877 23.3716 194.555 23.3716C196.444 23.3716 197.745 23.9599 197.996 25.893H204.291C203.955 21.6488 200.682 19.0012 194.598 19.0012C189.52 19.0012 185.323 21.3545 185.323 25.893C185.323 30.9354 189.31 31.944 193.045 32.5745C195.898 33.0788 198.5 33.2889 198.5 35.2218C198.5 36.6086 197.199 37.365 195.143 37.365C193.08 37.365 191.716 36.491 191.297 34.7177H184.779C185.259 39.1406 189.136 41.8193 195.185 41.8193C200.808 41.8193 204.962 39.3821 204.962 34.6757C204.962 29.1706 200.514 28.2041 196.737 27.5736Z" fill="#E60023"/>
<path d="M173.781 23.8757C176.005 23.8757 177.6 25.5146 177.852 28.0782H169.375C169.837 25.5146 171.18 23.8757 173.781 23.8757ZM174.159 36.8605C171.347 36.8605 169.753 35.0537 169.333 32.1541H184.776C184.818 27.7839 183.559 24.0438 180.999 21.6907C179.153 20.0098 176.719 19.0012 173.655 19.0012C167.109 19.0012 162.619 23.9177 162.619 30.3473C162.619 36.8605 166.983 41.7773 174.075 41.7773C176.802 41.7773 178.985 41.0629 180.789 39.8022C182.678 38.4996 183.936 36.6506 184.398 34.7177H177.726C177.138 36.0623 175.963 36.8605 174.159 36.8605Z" fill="#E60023"/>
<path d="M217.009 36.0734C216.692 36.086 216.267 36.1044 215.876 36.1044C214.407 36.1044 213.484 35.684 213.484 34.0032V23.9178H217.009V19.6315H213.484V12.8239H206.811V19.6315H204.712V23.9178H206.811V35.4739C206.811 40.0966 209.665 41.399 213.652 41.399C215.173 41.399 216.322 41.285 217.009 41.1508V36.0734Z" fill="#E60023"/>
<path d="M127.279 36.0832C127.006 36.0938 126.691 36.1044 126.397 36.1044C124.928 36.1044 124.005 35.684 124.005 34.0032V23.9178H127.279V19.6315H124.005V12.8239H117.333V19.6315H115.108V23.9178H117.333V35.4739C117.333 40.0966 120.186 41.399 124.173 41.399C125.522 41.399 126.578 41.3092 127.279 41.1953V36.0832Z" fill="#E60023"/>
<path d="M142.178 28.0782C141.926 25.5148 140.331 23.8757 138.107 23.8757C135.505 23.8757 134.163 25.5148 133.701 28.0782H142.178ZM126.945 30.3473C126.945 23.9179 131.435 19.0014 137.981 19.0014C141.044 19.0014 143.478 20.0098 145.325 21.6907C147.885 24.044 149.143 27.7839 149.101 32.1543H133.659C134.078 35.0537 135.673 36.8607 138.485 36.8607C140.289 36.8607 141.464 36.0623 142.051 34.7177H148.724C148.262 36.6506 147.003 38.4996 145.115 39.8024C143.311 41.0629 141.128 41.7773 138.401 41.7773C131.309 41.7773 126.945 36.8607 126.945 30.3473" fill="#E60023"/>
<path d="M74.1026 25.2206C76.7883 25.2206 78.2989 23.6237 78.2989 21.2282C78.2989 18.8332 76.7462 17.3624 74.1026 17.3624H68.8568V25.2206H74.1026ZM61.9319 11.1011H73.81C77.4606 11.1011 80.1464 12.1095 81.9927 13.8745C83.9232 15.6813 85.0142 18.2449 85.0142 21.2704C85.0142 27.0274 81.0276 31.1038 74.8589 31.1038H68.8568V41.147H61.9319V11.1011V11.1011Z" fill="#E60023"/>
<path d="M52.5423 27.0273C52.5423 41.3099 40.9801 52.8883 26.7175 52.8883C12.455 52.8883 0.892776 41.3099 0.892776 27.0273C0.892776 12.7445 12.455 1.16627 26.7175 1.16627C40.9801 1.16627 52.5423 12.7445 52.5423 27.0273Z" fill="white"/>
<path d="M26.7173 1.16603C12.4548 1.16603 0.892548 12.7445 0.892548 27.027C0.892548 37.9831 7.69951 47.349 17.3061 51.1171C17.0804 49.071 16.8764 45.9242 17.3956 43.6905C17.865 41.6721 20.4239 30.8359 20.4239 30.8359C20.4239 30.8359 19.6514 29.2866 19.6514 26.9963C19.6514 23.4003 21.7328 20.7157 24.3243 20.7157C26.5276 20.7157 27.5918 22.3722 27.5918 24.3585C27.5918 26.5774 26.1811 29.8948 25.4531 32.9691C24.8447 35.5431 26.7421 37.6422 29.2773 37.6422C33.8672 37.6422 37.3955 32.7957 37.3955 25.7998C37.3955 19.6078 32.9525 15.2786 26.6083 15.2786C19.2602 15.2786 14.9472 20.7977 14.9472 26.5015C14.9472 28.7242 15.8022 31.1076 16.8692 32.4033C17.0802 32.6594 17.1111 32.8837 17.0483 33.1451C16.8522 33.9619 16.4166 35.7184 16.331 36.0779C16.2184 36.5513 15.9568 36.6518 15.4673 36.4237C12.242 34.9203 10.2254 30.198 10.2254 26.4051C10.2254 18.2473 16.1443 10.7554 27.2889 10.7554C36.2475 10.7554 43.2094 17.1481 43.2094 25.6915C43.2094 34.6042 37.5976 41.7771 29.8086 41.7771C27.1917 41.7771 24.7316 40.4157 23.8895 38.8075C23.8895 38.8075 22.5946 43.7452 22.2807 44.9552C21.6977 47.2014 20.1237 50.0171 19.071 51.7348C21.4872 52.484 24.0551 52.8881 26.7173 52.8881C40.9801 52.8881 52.5423 41.3096 52.5423 27.027C52.5423 12.7445 40.9801 1.16603 26.7173 1.16603Z" fill="#E60023"/>
</g>
<defs>
<clipPath id="clip0_10_199">
<rect width="216.561" height="52.9974" fill="white" transform="translate(0.670227 0.528564)"/>
</clipPath>
</defs>
</svg>
