<svg width="158" height="55" viewBox="0 0 158 55" fill="none" xmlns="http://www.w3.org/2000/svg">
<path d="M142.519 22.594C144.41 22.594 145.943 21.0624 145.943 19.1731C145.943 17.2838 144.41 15.7522 142.519 15.7522C140.628 15.7522 139.095 17.2838 139.095 19.1731C139.095 21.0624 140.628 22.594 142.519 22.594Z" fill="#FF4500"/>
<path d="M93.6143 33.7603C95.2939 33.7603 96.263 32.5017 96.1984 31.2753C96.1661 30.6299 96.1015 30.2103 96.0369 29.8876C95.0032 25.434 91.3854 22.1422 87.0893 22.1422C81.9856 22.1422 77.851 26.7572 77.851 32.4371C77.851 38.1171 81.9856 42.732 87.0893 42.732C90.2872 42.732 92.5806 41.5702 94.228 39.7307C95.0355 38.8271 94.874 37.4394 93.905 36.7616C93.0974 36.213 92.0961 36.4066 91.3531 37.0198C90.6425 37.633 89.2858 38.8593 87.0893 38.8593C84.5052 38.8593 82.3086 36.6325 81.8241 33.6958H93.6143V33.7603ZM87.057 26.0472C89.3827 26.0472 91.3854 27.8544 92.1284 30.3394H81.9856C82.7286 27.8222 84.7313 26.0472 87.057 26.0472Z" fill="#222222"/>
<path d="M78.0448 24.1753C78.0448 23.2071 77.3342 22.4326 76.4297 22.2712C73.6195 21.8517 70.9707 22.8844 69.4526 24.7885V24.5303C69.4526 23.3362 68.4835 22.5939 67.5145 22.5939C66.4485 22.5939 65.5764 23.4653 65.5764 24.5303V40.3438C65.5764 41.3765 66.3516 42.2801 67.3852 42.3447C68.5158 42.4092 69.4526 41.5379 69.4526 40.4083V32.2434C69.4526 28.6289 72.1659 25.6598 75.9129 26.0793C76.0421 26.0793 76.1713 26.0793 76.3005 26.0793C77.2696 26.0148 78.0448 25.1757 78.0448 24.1753Z" fill="#222222"/>
<path d="M144.457 26.2408C144.457 25.1758 143.585 24.3044 142.519 24.3044C141.453 24.3044 140.581 25.1758 140.581 26.2408C140.581 26.3053 140.581 39.7952 140.581 40.4084C140.581 41.4734 141.453 42.3447 142.519 42.3447C143.585 42.3447 144.457 41.4734 144.457 40.4084C144.457 39.8275 144.457 26.3376 144.457 26.2408Z" fill="#222222"/>
<path d="M115.644 15.5263C115.644 14.4613 114.772 13.59 113.706 13.59C112.64 13.59 111.768 14.4613 111.768 15.5263V24.1431C110.443 22.8199 108.796 22.1744 106.826 22.1744C101.722 22.1744 97.5873 26.7894 97.5873 32.4694C97.5873 38.1493 101.722 42.7643 106.826 42.7643C108.796 42.7643 110.476 42.0866 111.8 40.7634C111.962 41.667 112.769 42.3447 113.706 42.3447C114.772 42.3447 115.644 41.4734 115.644 40.4084C115.644 40.4084 115.644 15.5263 115.644 15.5263ZM106.858 38.9238C103.886 38.9238 101.496 36.0516 101.496 32.4694C101.496 28.9194 103.886 26.0149 106.858 26.0149C109.83 26.0149 112.22 28.8871 112.22 32.4694C112.22 36.0516 109.797 38.9238 106.858 38.9238Z" fill="#222222"/>
<path d="M135.865 15.5263C135.865 14.4613 134.993 13.59 133.927 13.59C132.861 13.59 131.989 14.4613 131.989 15.5263V24.1431C130.664 22.8199 129.017 22.1744 127.047 22.1744C121.943 22.1744 117.808 26.7894 117.808 32.4694C117.808 38.1493 121.943 42.7643 127.047 42.7643C129.017 42.7643 130.697 42.0866 132.021 40.7634C132.182 41.667 132.99 42.3447 133.927 42.3447C134.993 42.3447 135.865 41.4734 135.865 40.4084C135.865 40.4084 135.865 15.5263 135.865 15.5263ZM127.047 38.9238C124.075 38.9238 121.684 36.0516 121.684 32.4694C121.684 28.9194 124.075 26.0149 127.047 26.0149C130.018 26.0149 132.409 28.8871 132.409 32.4694C132.409 36.0516 130.018 38.9238 127.047 38.9238Z" fill="#222222"/>
<path d="M154.277 40.4406V26.0471H155.989C156.893 26.0471 157.701 25.3694 157.765 24.4335C157.83 23.433 157.023 22.5939 156.053 22.5939H154.277V19.883C154.277 18.8503 153.502 17.9467 152.468 17.8822C151.337 17.8176 150.401 18.689 150.401 19.8185V22.6262H148.786C147.881 22.6262 147.074 23.3039 147.009 24.2398C146.944 25.2403 147.752 26.0794 148.721 26.0794H150.368V40.4729C150.368 41.5379 151.241 42.4092 152.306 42.4092C153.437 42.3447 154.277 41.5056 154.277 40.4406Z" fill="#222222"/>
<path d="M27.6541 54.6405C42.6038 54.6405 54.723 42.5324 54.723 27.5962C54.723 12.66 42.6038 0.55188 27.6541 0.55188C12.7044 0.55188 0.585266 12.66 0.585266 27.5962C0.585266 42.5324 12.7044 54.6405 27.6541 54.6405Z" fill="#FF4500"/>
<path d="M45.7108 27.5962C45.7108 25.4017 43.9342 23.659 41.77 23.659C40.704 23.659 39.735 24.0785 39.0243 24.7562C36.311 22.8199 32.5963 21.5613 28.4617 21.3999L30.2706 12.9445L36.1495 14.2032C36.2141 15.6877 37.4415 16.8818 38.9597 16.8818C40.5102 16.8818 41.77 15.6231 41.77 14.0741C41.77 12.525 40.5102 11.2664 38.9597 11.2664C37.8615 11.2664 36.8924 11.9118 36.4402 12.8477L29.8829 11.46C29.6891 11.4277 29.4953 11.46 29.3661 11.5568C29.2046 11.6536 29.1077 11.815 29.0754 12.0086L27.0727 21.4322C22.8735 21.5613 19.0942 22.8199 16.3485 24.7885C15.6379 24.1108 14.6688 23.6913 13.6029 23.6913C11.4063 23.6913 9.66205 25.4662 9.66205 27.6285C9.66205 29.2421 10.6311 30.5976 11.9878 31.2107C11.9232 31.598 11.8909 31.9853 11.8909 32.4048C11.8909 38.472 18.9649 43.4097 27.6864 43.4097C36.4079 43.4097 43.482 38.5043 43.482 32.4048C43.482 32.0175 43.4497 31.598 43.3851 31.2107C44.7417 30.5976 45.7108 29.2098 45.7108 27.5962ZM18.6419 30.4039C18.6419 28.8548 19.9017 27.5962 21.4522 27.5962C23.0027 27.5962 24.2624 28.8548 24.2624 30.4039C24.2624 31.953 23.0027 33.2116 21.4522 33.2116C19.9017 33.2439 18.6419 31.953 18.6419 30.4039ZM34.3729 37.8589C32.4348 39.7952 28.7524 39.9243 27.6864 39.9243C26.5882 39.9243 22.9058 39.7629 21 37.8589C20.7092 37.5684 20.7092 37.1166 21 36.8261C21.2907 36.5357 21.7429 36.5357 22.0336 36.8261C23.2611 38.0525 25.8452 38.472 27.6864 38.472C29.5276 38.472 32.1441 38.0525 33.3392 36.8261C33.6299 36.5357 34.0822 36.5357 34.3729 36.8261C34.6313 37.1166 34.6313 37.5684 34.3729 37.8589ZM33.856 33.2439C32.3056 33.2439 31.0458 31.9853 31.0458 30.4362C31.0458 28.8871 32.3056 27.6285 33.856 27.6285C35.4065 27.6285 36.6663 28.8871 36.6663 30.4362C36.6663 31.953 35.4065 33.2439 33.856 33.2439Z" fill="white"/>
</svg>
