<svg width="98" height="41" viewBox="0 0 98 41" fill="none" xmlns="http://www.w3.org/2000/svg">
<path fill-rule="evenodd" clip-rule="evenodd" d="M97.4237 21.208C97.4237 14.2798 94.0766 8.81299 87.6792 8.81299C81.2549 8.81299 77.3679 14.2798 77.3679 21.1539C77.3679 29.3 81.9567 33.4136 88.543 33.4136C91.7552 33.4136 94.1846 32.6829 96.0201 31.6545V26.2418C94.1846 27.162 92.0791 27.7303 89.4068 27.7303C86.7885 27.7303 84.4671 26.8101 84.1702 23.6167H97.3697C97.3697 23.2648 97.4237 21.8575 97.4237 21.208ZM84.0892 18.637C84.0892 15.5788 85.9517 14.3069 87.6523 14.3069C89.2988 14.3069 91.0534 15.5788 91.0534 18.637H84.0892Z" fill="#635BFF"/>
<path fill-rule="evenodd" clip-rule="evenodd" d="M66.9487 8.81299C64.3033 8.81299 62.6028 10.0579 61.658 10.9239L61.3071 9.246H55.3687V40.8019L62.1169 39.3675L62.1439 31.7086C63.1156 32.4123 64.5463 33.4136 66.9217 33.4136C71.7534 33.4136 76.1533 29.5165 76.1533 20.9374C76.1263 13.089 71.6724 8.81299 66.9487 8.81299ZM65.3291 27.4597C63.7365 27.4597 62.7917 26.8913 62.1439 26.1877L62.1169 16.1472C62.8187 15.3623 63.7905 14.8211 65.3291 14.8211C67.7854 14.8211 69.486 17.5815 69.486 21.1268C69.486 24.7533 67.8124 27.4597 65.3291 27.4597Z" fill="#635BFF"/>
<path fill-rule="evenodd" clip-rule="evenodd" d="M46.083 7.21628L52.8583 5.75485V0.260986L46.083 1.69535V7.21628Z" fill="#635BFF"/>
<path d="M52.8583 9.27307H46.083V32.9535H52.8583V9.27307Z" fill="#635BFF"/>
<path fill-rule="evenodd" clip-rule="evenodd" d="M38.8219 11.2758L38.3901 9.27315H32.5596V32.9536H39.3078V16.905C40.9004 14.8211 43.5997 15.2 44.4365 15.4977V9.27315C43.5727 8.94839 40.4145 8.35299 38.8219 11.2758Z" fill="#635BFF"/>
<path fill-rule="evenodd" clip-rule="evenodd" d="M25.3254 3.40039L18.7392 4.80769L18.7122 26.4855C18.7122 30.4908 21.7084 33.4407 25.7034 33.4407C27.9168 33.4407 29.5364 33.0348 30.4271 32.5477V27.0538C29.5634 27.4056 25.2985 28.6505 25.2985 24.6451V15.0376H30.4271V9.27315H25.2985L25.3254 3.40039Z" fill="#635BFF"/>
<path fill-rule="evenodd" clip-rule="evenodd" d="M7.07814 16.1472C7.07814 15.0917 7.94191 14.6857 9.37254 14.6857C11.424 14.6857 14.0153 15.3082 16.0668 16.4178V10.0579C13.8264 9.16481 11.613 8.81299 9.37254 8.81299C3.89296 8.81299 0.248901 11.6817 0.248901 16.4719C0.248901 23.9414 10.5062 22.7506 10.5062 25.9712C10.5062 27.2161 9.42653 27.622 7.91492 27.622C5.6745 27.622 2.81324 26.7019 0.545824 25.457V31.898C3.05617 32.9806 5.59352 33.4407 7.91492 33.4407C13.5295 33.4407 17.3895 30.6531 17.3895 25.8088C17.3625 17.7439 7.07814 19.1783 7.07814 16.1472Z" fill="#635BFF"/>
</svg>
