<svg width="40" height="40" viewBox="0 0 40 40" fill="none" xmlns="http://www.w3.org/2000/svg">
<path d="M38.43 25.4506C39.256 25.4506 39.926 26.1206 39.926 26.9466C39.926 26.9906 39.644 30.5246 39.58 31.6126C39.466 33.4886 38.738 35.4026 37.632 36.7346C36.092 38.5906 34.13 39.4586 31.462 39.4646L30.1267 39.4658C30.0206 39.4659 29.9098 39.466 29.7945 39.466L24.2732 39.468C24.0965 39.468 23.919 39.468 23.741 39.4681L19.06 39.4686C18.232 39.4686 17.56 38.7966 17.56 37.9686C17.56 37.1406 18.232 36.4686 19.062 36.4686L23.8025 36.4681C23.9798 36.468 24.1564 36.468 24.3322 36.468L29.7845 36.466C29.8983 36.466 30.0079 36.4659 30.113 36.4658L31.456 36.4646C33.26 36.4606 34.344 35.9986 35.322 34.8186C36.016 33.9846 36.512 32.6546 36.586 31.4326C36.65 30.3286 36.958 26.8306 36.958 26.8306C37.018 26.0626 37.644 25.4506 38.43 25.4506ZM1.5504 25.4502C2.3364 25.4502 2.9604 26.0622 3.0224 26.8322C3.0224 26.8322 3.3304 30.3302 3.3964 31.4322C3.4704 32.6542 3.9644 33.9842 4.6584 34.8162C5.6384 36.0002 6.7224 36.4602 8.5244 36.4642L9.40665 36.466C9.50296 36.466 9.60454 36.4661 9.71106 36.4661L10.7944 36.4662C11.6224 36.4662 12.3004 37.1382 12.3004 37.9662C12.3004 38.7942 11.6204 39.4662 10.7904 39.4662L9.70354 39.4661C9.59757 39.4661 9.49671 39.466 9.40115 39.466L8.5204 39.4642C5.8504 39.4582 3.8884 38.5902 2.3484 36.7322C1.2444 35.4022 0.5144 33.4882 0.4024 31.6122C0.3364 30.5242 0.0544 26.9902 0.0544 26.9462C0.0544 26.1202 0.7244 25.4502 1.5504 25.4502ZM19.9896 25.2668C20.8176 25.2668 21.4896 25.9388 21.4896 26.7668V29.3548C21.4896 30.1828 20.8176 30.8548 19.9896 30.8548C19.1616 30.8548 18.4896 30.1828 18.4896 29.3548V26.7668C18.4896 25.9388 19.1616 25.2668 19.9896 25.2668ZM22.572 0C25.578 0 28.068 2.254 28.44 5.162H32.366C36.564 5.162 39.98 8.578 39.98 12.776V19.71C39.98 20.214 39.728 20.682 39.308 20.962C35.184 23.69 30.288 25.51 25.152 26.22C25.082 26.23 25.014 26.234 24.944 26.234C24.268 26.234 23.662 25.774 23.492 25.102C23.088 23.512 21.644 22.398 19.98 22.398C18.298 22.398 16.868 23.488 16.422 25.11C16.222 25.838 15.526 26.312 14.768 26.2C9.666 25.49 4.792 23.68 0.674 20.962C0.252 20.684 0 20.214 0 19.71V12.776C0 8.578 3.424 5.162 7.634 5.162L11.54 5.16C11.912 2.252 14.402 0 17.408 0H22.572ZM22.572 3H17.408C15.8 3 14.49 4.308 14.49 5.916L14.492 6.656C14.492 7.054 14.334 7.434 14.054 7.718C13.772 8 13.392 8.158 12.992 8.158L7.636 8.162C5.078 8.162 3 10.232 3 12.776V18.89C6.282 20.926 10.058 22.348 14.022 23.046C15.148 20.846 17.438 19.398 19.98 19.398C22.542 19.398 24.822 20.85 25.918 23.064C29.906 22.362 33.694 20.932 36.98 18.89V12.776C36.98 10.232 34.91 8.162 32.366 8.162H19.99C19.162 8.162 18.49 7.49 18.49 6.662C18.49 5.834 19.162 5.162 19.99 5.162H25.39C25.056 3.918 23.918 3 22.572 3Z" fill="black"/>
</svg>
